<svg xmlns="http://www.w3.org/2000/svg" xmlns:xlink="http://www.w3.org/1999/xlink" width="196.541" height="50.141" viewBox="0 0 196.541 50.141">
  <defs>
    <clipPath id="clip-path">
      <rect id="Rectangle_1646" data-name="Rectangle 1646" width="135.335" height="32.577" fill="#0073db"/>
    </clipPath>
  </defs>
  <g id="Group_4176" data-name="Group 4176" transform="translate(-12958 3180)">
    <g id="Group_734" data-name="Group 734" transform="translate(12958 -3161.684)">
      <path id="Path_1268" data-name="Path 1268" d="M85.865,40.683V55.489L72.47,64.2,58.63,55.856V40.146l-4.759-2.731c0,.07-.084,19.916-.084,19.916a2.567,2.567,0,0,0,1.279,2.217l16.125,9.346a2.563,2.563,0,0,0,2.648-.046l15.569-9.774A2.557,2.557,0,0,0,90.6,56.9V37.936Z" transform="translate(-53.787 -37.415)" fill="#0073db"/>
    </g>
    <g id="Group_735" data-name="Group 735" transform="translate(12958.04 -3180)">
      <path id="Path_1269" data-name="Path 1269" d="M72.427,44.122a.7.7,0,0,1-.361-.1L54.177,33.579a.718.718,0,0,1,0-1.242L72.062,22.042a.723.723,0,0,1,.716,0l17.88,10.294a.718.718,0,0,1,0,1.242L72.79,44.022a.712.712,0,0,1-.363.1ZM55.973,32.963l16.454,9.609,16.44-9.609-16.448-9.47Z" transform="translate(-53.821 -21.947)" fill="#0073db"/>
    </g>
    <g id="Group_736" data-name="Group 736" transform="translate(12958.04 -3167.304)">
      <path id="Path_1270" data-name="Path 1270" d="M72.419,47.054a.7.7,0,0,1-.36-.1L54.179,36.542a.718.718,0,0,1-.007-1.237l4.175-2.5a.718.718,0,0,1,.738,1.233l-3.132,1.873L72.419,45.5,88.9,35.878,85.816,34a.719.719,0,1,1,.748-1.227l4.109,2.5a.718.718,0,0,1-.011,1.233L72.782,46.955a.714.714,0,0,1-.363.1Z" transform="translate(-53.821 -32.669)" fill="#0073db"/>
    </g>
    <g id="Group_737" data-name="Group 737" transform="translate(12976.673 -3161.163)">
      <path id="Path_1271" data-name="Path 1271" d="M83.262,40.6V55.408l-13.7,8.7v5.046h.006a2.581,2.581,0,0,0,1.366-.392l15.653-9.774a2.634,2.634,0,0,0,1.275-2.169V37.855Z" transform="translate(-69.557 -37.855)" fill="#0073db"/>
    </g>
    <g id="Group_4175" data-name="Group 4175" transform="translate(-45.284 65)">
      <path id="Path_5467" data-name="Path 5467" d="M-.571,3.418h-.812V-2.848H-3.6v-.722H1.642v.722H-.571Zm6.356,0L3.415-2.776H3.377q.067.736.067,1.749V3.418h-.75V-3.569H3.917L6.13,2.194h.038L8.4-3.569H9.614V3.418H8.8v-4.5q0-.774.067-1.682H8.83L6.44,3.418Z" transform="translate(13190.212 -3230.292)" fill="#565656"/>
      <g id="Group_4172" data-name="Group 4172" transform="translate(13050.284 -3235.308)">
        <g id="Group_4171" data-name="Group 4171" clip-path="url(#clip-path)">
          <path id="Path_5460" data-name="Path 5460" d="M0,27.224V10.551a2.1,2.1,0,1,1,4.208,0V27.224a6.466,6.466,0,0,0,12.932,0V10.551a2.105,2.105,0,1,1,4.21,0V27.224a10.675,10.675,0,0,1-21.35,0" transform="translate(0 -6)" fill="#0073db"/>
          <path id="Path_5461" data-name="Path 5461" d="M104.274,47.33v8.548a2.105,2.105,0,1,1-4.211,0V47.33a6.465,6.465,0,1,0-12.93,0v8.548a2.105,2.105,0,1,1-4.21,0V47.33a10.675,10.675,0,1,1,21.35,0" transform="translate(-59.061 -26.106)" fill="#0073db"/>
          <path id="Path_5462" data-name="Path 5462" d="M166.2,11a2.105,2.105,0,1,1,2.977-2.977A2.105,2.105,0,0,1,166.2,11m-.637,24.075V17.935a2.1,2.1,0,0,1,4.208,0V35.078a2.1,2.1,0,1,1-4.208,0" transform="translate(-117.917 -5.262)" fill="#0073db"/>
          <path id="Path_5463" data-name="Path 5463" d="M203.719,12.673a2.133,2.133,0,0,1-2.128,2.127h-3.018V29.816a2.107,2.107,0,1,1-4.213,0V14.8H191.3a2.122,2.122,0,0,1-2.081-2.127,2.083,2.083,0,0,1,2.081-2.082h3.063V2.083a2.107,2.107,0,0,1,4.213,0v8.507h3.018a2.1,2.1,0,0,1,2.128,2.082" transform="translate(-134.766)" fill="#0073db"/>
          <path id="Path_5464" data-name="Path 5464" d="M260.678,47.33a2.1,2.1,0,0,1-2.127,2.082H243.875A6.484,6.484,0,0,0,250,53.793a8.344,8.344,0,0,0,4.76-1.4,2.038,2.038,0,0,1,2.81.978,2.219,2.219,0,0,1-1.022,2.809A10.425,10.425,0,0,1,250,58a10.675,10.675,0,1,1,0-21.351A10.474,10.474,0,0,1,260.678,47.33m-16.8-2.129h12.292A6.219,6.219,0,0,0,250,40.864a6.509,6.509,0,0,0-6.127,4.337" transform="translate(-170.454 -26.106)" fill="#0073db"/>
          <path id="Path_5465" data-name="Path 5465" d="M336.162,32.927l-8.629-25.34a2.659,2.659,0,0,0-2.5-1.9,2.713,2.713,0,0,0-2.587,1.883l-9.115,25.4a3,3,0,0,0,1.834,3.426l.681.043a2.449,2.449,0,0,0,2.531-1.859l1.651-4.01h9.647l1.416,4a3.032,3.032,0,0,0,2.826,1.914,2.622,2.622,0,0,0,.684-.092,2.91,2.91,0,0,0,1.611-1.6,2.4,2.4,0,0,0-.044-1.862m-15.714-6.658,4.586-13.039,4.483,13.039Z" transform="translate(-223.105 -4.048)" fill="#0073db"/>
          <path id="Path_5466" data-name="Path 5466" d="M412.919,24.721l-.587-.967c.209-.071.418-.15.629-.24l.03,0,0-.007a10.663,10.663,0,0,0,1.3-.673c.044-.026.085-.054.128-.081.124-.077.247-.155.369-.237.155-.1.3-.212.452-.323l.051-.038q.229-.174.446-.359l.1-.085c.11-.1.218-.193.323-.293s.2-.191.294-.289c.033-.034.067-.067.1-.1a8.313,8.313,0,0,0,1.191-1.561l.035-.058c.014-.025.032-.05.046-.075h0a8.673,8.673,0,0,0,1.209-4.4,9.15,9.15,0,0,0-9-8.948h-9.017a2.715,2.715,0,0,0-2.7,2.658v25.8a2.158,2.158,0,0,0,4.317,0V24.1h4.508l.3-.03h.048L414.594,35.8a2.158,2.158,0,1,0,3.69-2.24ZM402.626,10.238h7.231a4.855,4.855,0,0,1,4.956,4.732,4.92,4.92,0,0,1-4.956,4.879h-7.231Z" transform="translate(-283.687 -4.262)" fill="#0073db"/>
        </g>
      </g>
    </g>
  </g>
</svg>
